<svg xmlns="http://www.w3.org/2000/svg" viewBox="0 0 332.24 360.81"><defs><style>.cls-1{fill:#231f20;}.cls-2,.cls-3{fill:#fff;}.cls-3{fill-rule:evenodd;}</style></defs><title>logo-main</title><g id="Layer_2" data-name="Layer 2"><g id="Ebene_1" data-name="Ebene 1"><path class="cls-1" d="M283.13,185.06H272.27v16.15h10.86a8.08,8.08,0,1,0,0-16.15ZM11.7,256H332.21v76.22H0V256L0,0H332.24V234.32H320.57c-10.95,0-20.3-1-29.64-10.67L279.72,212h-7.45v21.54H260.6V174.29h23.6a18.83,18.83,0,0,1,19,18.85,18.63,18.63,0,0,1-9.6,16.42l5.92,6.1c7.54,7.81,16.8,8,21,8v-212H11.7V256Zm223-44H222.73v21.54H211.06V174.29h23.61a18.85,18.85,0,1,1,0,37.69Zm-1.08-26.92H222.73v16.15h10.86a8.08,8.08,0,1,0,0-16.15Zm-67.13,41.82,6.47-8.62c5.29,4.13,9.51,4.94,12.2,4.94,4.49,0,6.55-2.42,6.55-5.47,0-9.61-23.33-9.25-23.33-27.47,0-10.32,8.61-16.87,17.5-16.87,5.56,0,11.39,1.26,16.42,6.37l-6.91,8.8a14.8,14.8,0,0,0-9.43-3.95,5.19,5.19,0,0,0-5.47,5.12c0,8.7,23.33,8.88,23.33,27.19,0,10.41-8.16,17.5-19.74,17.5-6.91,0-14.27-3.5-17.59-7.54Zm-6.73-52.59v59.23H148.07V174.29ZM102.3,185.06H91.44v16.15H102.3a8.08,8.08,0,1,0,0-16.15Zm7.81,38.59L98.89,212H91.44v21.54H79.78V174.29h23.6a18.82,18.82,0,0,1,19,18.85,18.63,18.63,0,0,1-9.6,16.42l5.92,6.1c7.54,7.81,16.78,8,21,8v10.77c-10.95,0-20.28-1.08-29.61-10.77Zm-90-19.74a30.53,30.53,0,0,1,52.5-21.19l-8.35,7.72a18.6,18.6,0,0,0-13.64-5.83c-10.68,0-18.85,8.62-18.85,19.3s8.17,19.29,18.85,19.29a18.6,18.6,0,0,0,13.64-5.83l8.35,7.72a30.53,30.53,0,0,1-52.5-21.18Z"/><polygon class="cls-2" points="24.61 285.22 31.58 285.22 31.58 307.42 36.72 307.42 36.72 285.22 43.73 285.22 43.73 280.84 24.61 280.84 24.61 285.22 24.61 285.22"/><polygon class="cls-2" points="55.06 280.84 49.96 280.84 49.96 307.42 55.06 307.42 55.06 295.7 65.62 295.7 65.62 307.42 70.72 307.42 70.72 280.84 65.62 280.84 65.62 291.43 55.06 291.43 55.06 280.84 55.06 280.84"/><polygon class="cls-2" points="82.99 285.22 94.58 285.22 94.58 280.84 77.89 280.84 77.89 307.42 95.02 307.42 95.02 303.07 82.99 303.07 82.99 295.82 93.55 295.82 93.55 291.47 82.99 291.47 82.99 285.22 82.99 285.22"/><path class="cls-3" d="M101.66,307.42h5.1V297.29h3.67l5.46,10.13h5.94l-6.14-11a7.52,7.52,0,0,0,4.7-7.37,7.66,7.66,0,0,0-3.78-6.9c-1.8-1-3.63-1.27-8.33-1.27h-6.62v26.58Zm5.1-22.2h1.48c3.47,0,4.18.08,5.26.67a3.49,3.49,0,0,1,1.71,3.12c0,2.95-1.63,3.9-6.57,3.9h-1.88v-7.69Z"/><path class="cls-3" d="M125.18,307.42h5.22l1.68-5.54h9.36l1.63,5.54h5.31l-9-26.58h-5.18l-9,26.58Zm8.17-9.89,3.39-10.84,3.43,10.84Z"/><path class="cls-3" d="M153.14,307.42h5.18v-9.93h1.55a26.23,26.23,0,0,0,6.78-.56c3.19-.91,5.22-3.86,5.22-7.65a7.73,7.73,0,0,0-7.65-8.25c-1.4-.11-2.51-.19-4.86-.19h-6.22v26.58Zm5.1-22.2h1.87c4.94,0,6.54,1,6.54,4,0,2.76-1.6,3.91-5.38,3.91h-3v-7.93Z"/><polygon class="cls-2" points="182.34 285.22 193.94 285.22 193.94 280.84 177.24 280.84 177.24 307.42 194.38 307.42 194.38 303.07 182.34 303.07 182.34 295.82 192.9 295.82 192.9 291.47 182.34 291.47 182.34 285.22 182.34 285.22"/><path class="cls-2" d="M199.55,296.18c0,3.86.2,5.14,1,6.81,1.56,3.15,5,4.95,9.49,4.95s8-1.8,9.48-4.95c.84-1.67,1-2.95,1-6.81V280.84h-5.1V296.1a23.35,23.35,0,0,1-.12,2.87c-.28,2.95-2.15,4.54-5.3,4.54a5.08,5.08,0,0,1-4.51-2.07c-.75-1.12-.87-2.07-.87-5.34V280.84h-5.14v15.34Z"/><polygon class="cls-2" points="226.38 285.22 233.35 285.22 233.35 307.42 238.49 307.42 238.49 285.22 245.5 285.22 245.5 280.84 226.38 280.84 226.38 285.22 226.38 285.22"/><polygon class="cls-2" points="257.02 280.84 251.92 280.84 251.92 307.42 257.02 307.42 257.02 280.84 257.02 280.84"/><path class="cls-2" d="M274.93,280.36c-7.06,0-11.72,5.5-11.72,13.83s4.7,13.75,12,13.75c5.94,0,9.17-3.51,9.49-10.36h-4.58c-.32,4-2,5.93-5.07,5.93-4,0-6.45-3.55-6.45-9.32s2.47-9.45,6.42-9.45c2.71,0,4.42,1.68,4.94,4.75h4.38c-.36-5.87-3.71-9.13-9.36-9.13Z"/><path class="cls-2" d="M307.65,284.94c-1.36-2.87-4.5-4.58-8.37-4.58-5.34,0-9,3.19-9,7.77a6.88,6.88,0,0,0,1.35,4.22c1,1.4,2.47,2.32,6,3.79l3.27,1.35c2.23,1,3.14,1.88,3.14,3.19,0,1.68-1.71,2.83-4.22,2.83-3.31,0-5.14-1.72-5.46-5.14h-4.94c.24,6.26,3.83,9.57,10.36,9.57,5.82,0,9.49-3.2,9.49-8.17a7,7,0,0,0-1.2-4.19,6.36,6.36,0,0,0-1.75-1.67,10.92,10.92,0,0,0-2.24-1.2c-.39-.2-1.39-.6-3-1.24l-2.56-1c-2.39-1-3.14-1.67-3.14-2.87,0-1.63,1.67-2.87,3.86-2.87a4,4,0,0,1,4.35,3.91h4.9a8.28,8.28,0,0,0-.8-3.71Z"/><path class="cls-1" d="M323.89,344.1a8.56,8.56,0,0,1,4.11,1.08,7.61,7.61,0,0,1,3.12,3.09,8.39,8.39,0,0,1,0,8.34,7.87,7.87,0,0,1-3.09,3.1,8.42,8.42,0,0,1-8.32,0,7.87,7.87,0,0,1-3.09-3.1,8.39,8.39,0,0,1-1.11-4.15,8.48,8.48,0,0,1,1.13-4.19,7.73,7.73,0,0,1,3.12-3.09A8.59,8.59,0,0,1,323.89,344.1Zm0,1.39a7.11,7.11,0,0,0-3.42.9,6.42,6.42,0,0,0-2.61,2.58,7,7,0,0,0,0,6.95,6.49,6.49,0,0,0,2.59,2.58,6.92,6.92,0,0,0,6.93,0,6.41,6.41,0,0,0,2.58-2.58,7,7,0,0,0,0-6.95,6.36,6.36,0,0,0-2.61-2.58A7.11,7.11,0,0,0,323.89,345.49Zm-3.66,11.59v-9h3.09a7.42,7.42,0,0,1,2.29.25,2.17,2.17,0,0,1,1.13.87,2.29,2.29,0,0,1,.42,1.31,2.44,2.44,0,0,1-.7,1.72,2.77,2.77,0,0,1-1.87.82,2.25,2.25,0,0,1,.76.48,9.29,9.29,0,0,1,1.33,1.78l1.1,1.76H326l-.8-1.42a7.21,7.21,0,0,0-1.52-2.09,1.82,1.82,0,0,0-1.16-.31h-.85v3.82Zm1.45-5.06h1.76a2.85,2.85,0,0,0,1.72-.38,1.29,1.29,0,0,0,.24-1.71,1.29,1.29,0,0,0-.62-.47,4.64,4.64,0,0,0-1.45-.15h-1.65Z"/></g></g></svg>